<svg xmlns="http://www.w3.org/2000/svg" viewBox="0 0 520 420" role="img" aria-label="Peta pelayanan warga">
  <rect x="22" y="22" width="476" height="376" rx="18" fill="#fff7e7" stroke="#dfd2bd" stroke-width="2"/>
  <path d="M70 104c60-44 102 26 160-2 76-36 92-22 142 18 34 27 58 26 92 8" fill="none" stroke="#8aa15f" stroke-width="18" stroke-linecap="round" opacity=".55"/>
  <path d="M58 292c82-82 148-16 218-70 70-54 106-64 190-18" fill="none" stroke="#d89428" stroke-width="18" stroke-linecap="round" opacity=".38"/>
  <path d="M86 72v280M188 50v314M318 58v300M444 84v268" stroke="#e3d8c8" stroke-width="4" stroke-dasharray="9 12"/>
  <path d="M56 158h410M70 252h382M92 334h328" stroke="#e3d8c8" stroke-width="4" stroke-dasharray="9 12"/>
  <g>
    <rect x="205" y="142" width="118" height="94" rx="10" fill="#123d3b"/>
    <path d="M223 145v-20h82v20" fill="#1d7f78"/>
    <rect x="228" y="166" width="25" height="25" rx="4" fill="#fff7e7"/>
    <rect x="274" y="166" width="25" height="25" rx="4" fill="#fff7e7"/>
    <rect x="251" y="204" width="26" height="32" fill="#fff7e7"/>
    <text x="264" y="268" text-anchor="middle" fill="#123d3b" font-family="Arial, sans-serif" font-size="18" font-weight="700">Kantor Kelurahan</text>
  </g>
  <g fill="#b24a3b">
    <path d="M138 116c0 23-28 50-28 50s-28-27-28-50a28 28 0 0 1 56 0Z"/>
    <circle cx="110" cy="116" r="10" fill="#fff7e7"/>
    <path d="M420 224c0 23-28 50-28 50s-28-27-28-50a28 28 0 0 1 56 0Z"/>
    <circle cx="392" cy="224" r="10" fill="#fff7e7"/>
  </g>
  <g fill="#1d7f78">
    <circle cx="98" cy="310" r="16"/>
    <circle cx="356" cy="102" r="16"/>
    <circle cx="442" cy="318" r="16"/>
  </g>
</svg>
